<?xml version="1.0" encoding="UTF-8" standalone="no"?><!DOCTYPE svg PUBLIC "-//W3C//DTD SVG 1.1//EN" "http://www.w3.org/Graphics/SVG/1.1/DTD/svg11.dtd"><svg width="100%" height="100%" viewBox="0 0 128 128" version="1.1" xmlns="http://www.w3.org/2000/svg" xmlns:xlink="http://www.w3.org/1999/xlink" xml:space="preserve" xmlns:serif="http://www.serif.com/" style="fill-rule:evenodd;clip-rule:evenodd;stroke-linejoin:round;stroke-miterlimit:2;"><path d="M3.77,71.73l16.34,-16.1l27.82,-4.93l-2.75,14.56l-37.61,11.56l-2.43,-1.05l-1.37,-4.04Z" style="fill:#ca2c31;fill-rule:nonzero;"/><path d="M22.94,59.76l-17.74,16.12l13.05,6.36l19.81,-10.11l0,-4.77l4.05,-10.92l-19.17,3.32Z" style="fill:#a02422;fill-rule:nonzero;"/><path d="M64.92,88.15l-8.57,3.72l-8.09,17.15c0,0 7.12,15.77 7.44,15.77c0.32,0 4.37,0.32 4.37,0.32l14.4,-16.1l3.64,-27.5l-13.19,6.64Z" style="fill:#a02422;fill-rule:nonzero;"/><path d="M56.5,100.84c0,0 4.77,-0.97 8.17,-2.59c3.4,-1.62 7.6,-4.04 7.6,-4.04l-1.54,13.43l-15.05,17.13c0,0 -0.59,-0.73 -3.09,-6.17c-1.99,-4.34 -2.68,-5.89 -2.68,-5.89l6.59,-11.87Z" style="fill:#ca2c31;fill-rule:nonzero;"/><path d="M31.58,80.66c-0,0 -5.74,-0.48 -12.03,7.47c-5.74,7.26 -8.43,19.08 -9.47,22.12c-1.04,3.04 -3.53,3.66 -2.7,5.05c0.83,1.39 4.42,1.31 8.85,0.76c4.43,-0.55 8.23,-1.94 8.23,-1.94c-0,0 -0.19,0.48 -0.83,1.52c-0.23,0.37 -1.03,0.9 -0.97,1.45c0.14,1.31 11.36,1.34 20.32,-7.88c9.68,-9.95 4.98,-18.11 4.98,-18.11l-16.38,-10.44Z" style="fill:#f7d74d;fill-rule:nonzero;"/><path d="M33.31,85.29c0,0 -6.19,0.33 -11.31,8.28c-5.12,7.95 -7.5,17.16 -7.01,17.78c0.48,0.62 10.02,-2.83 12.31,-2.14c1.57,0.48 0.76,2.07 1.18,2.49c0.35,0.35 4.49,0.94 11.19,-6.32c6.71,-7.26 5.12,-17.46 5.12,-17.46l-11.48,-2.63Z" style="fill:#fbf0b4;fill-rule:nonzero;"/><path d="M36.35,74.44c0,0 -3.11,2.77 -4.22,4.36c-1.11,1.59 -1.11,1.73 -1.04,2.21c0.07,0.48 1.22,5.75 6.01,10.37c5.88,5.67 11.13,6.43 11.89,6.43c0.76,0 5.81,-5.67 5.81,-5.67l-18.45,-17.7Z" style="fill:#858585;fill-rule:nonzero;"/><path d="M50.1,91.24c0,0 5.04,3.31 13.49,0.47c11.55,-3.88 20.02,-12.56 30.51,-23.52c10.12,-10.58 18.61,-23.71 18.61,-23.71l-5.95,-19.93l-56.66,66.69Z" style="fill:#437687;fill-rule:nonzero;"/><path d="M67.99,80.33l1.39,-4.32l3.48,0.49c0,0 2.65,1.25 4.6,2.16c1.95,0.91 4.46,1.6 4.46,1.6l-4.95,4.18c0,0 -2.7,-1.02 -4.67,-1.88c-2.22,-0.97 -4.31,-2.23 -4.31,-2.23Z" style="fill:#3f545f;fill-rule:nonzero;"/><path d="M84.32,16.14c-0,0 -9.62,5.58 -23.41,18.63c-12.43,11.76 -21.64,22.4 -23.87,31.45c-1.86,7.58 -0.87,12.18 3.36,17.15c4.47,5.26 9.71,7.87 9.71,7.87c-0,0 3.94,0.06 20.38,-12.59c20.51,-15.79 36.94,-42.23 36.94,-42.23l-23.11,-20.28Z" style="fill:#8dafbf;fill-rule:nonzero;"/><path d="M104.18,41.84c0,0 -8.37,-3.57 -14.34,-11.9c-5.93,-8.27 -5.46,-13.86 -5.46,-13.86c0,0 4.96,-3.89 16.11,-8.34c7.5,-2.99 17.71,-4.52 21.07,-2.03c3.36,2.49 -2.3,14.98 -2.3,14.98l-10.31,19.96l-4.77,1.19Z" style="fill:#d83f22;fill-rule:nonzero;"/><path d="M68.17,80.4c0,0 -7.23,-3.69 -11.83,-8.94c-8.7,-9.91 -10.5,-20.79 -10.5,-20.79l4.37,-5.13c0,0 1.09,11.56 10.42,21.55c6.08,6.51 12.43,9.49 12.43,9.49c0,0 -1.27,1.07 -2.63,2.11c-0.87,0.67 -2.26,1.71 -2.26,1.71Z" style="fill:#6896a5;fill-rule:nonzero;"/><path d="M112.71,44.48c-0,-0 4.34,-5.23 8.45,-17.02c5.74,-16.44 0.74,-21.42 0.74,-21.42c-0,-0 -1.69,7.82 -7.56,18.69c-4.71,8.71 -10.41,17 -10.41,17c-0,-0 3.14,1.41 4.84,1.9c2.14,0.62 3.94,0.85 3.94,0.85Z" style="fill:#a02422;fill-rule:nonzero;"/><path d="M39.81,69.66c1.3,1.24 3.27,-0.06 4.56,-3.1c1.3,-3.04 1.28,-4.74 0.28,-5.46c-1.24,-0.9 -3.32,1.07 -4.23,2.82c-1,1.94 -1.59,4.8 -0.61,5.74Z" style="fill:#b3e1ee;fill-rule:nonzero;"/><path d="M84.95,20.13c0,0 -7.61,5.47 -15.73,12.91c-7.45,6.83 -12.39,12.17 -13.07,13.41c-0.72,1.33 -0.73,3.21 -0.17,4.17c0.56,0.96 1.8,1.46 2.93,0.62c1.13,-0.85 9.18,-9.75 16.45,-16.11c6.65,-5.82 11.78,-9.51 11.78,-9.51c0,0 2.08,-3.68 1.74,-4.52c-0.34,-0.85 -3.93,-0.97 -3.93,-0.97Z" style="fill:#b3e1ee;fill-rule:nonzero;"/><path d="M84.95,20.13c0,0 5.62,-4.31 11.74,-7.34c5.69,-2.82 11.35,-5.17 12.37,-3.13c0.97,1.94 -5.37,4.58 -10.95,8.14c-5.58,3.56 -10.95,7.81 -10.95,7.81c0,0 -0.82,-1.5 -1.35,-2.89c-0.59,-1.51 -0.86,-2.59 -0.86,-2.59Z" style="fill:#ed6a65;fill-rule:nonzero;"/><path d="M89.59,39.25c-5.57,-5.13 -13.32,-3.75 -17.14,0.81c-3.92,4.7 -3.63,11.88 1,16.2c4.21,3.92 12.04,4.81 16.76,-0.69c4.2,-4.88 3.94,-12.13 -0.62,-16.32Z" style="fill:#e1e1e1;fill-rule:nonzero;"/><path d="M75.33,41.87c-3.31,3.25 -3.13,9.69 0.81,12.63c3.44,2.57 8.32,2.44 11.38,-0.69c3.06,-3.13 3.06,-8.82 0.19,-11.76c-3.3,-3.37 -8.59,-3.9 -12.38,-0.18Z" style="fill:#3f545f;fill-rule:nonzero;"/><path d="M50,76.89c0,0 6.19,-6.28 6.87,-5.6c0.68,0.68 0.59,4.49 -2.37,8.73c-2.97,4.24 -9.5,11.79 -14.67,16.88c-5.1,5.01 -12.29,10.74 -12.97,10.64c-0.53,-0.08 -2.68,-1.15 -3.54,-2.19c-0.84,-1.03 1.67,-5.9 2.68,-7.51c1.02,-1.61 24,-20.95 24,-20.95Z" style="fill:#a02524;fill-rule:nonzero;"/><path d="M21.23,101.85c-0.08,1.44 2.12,3.54 2.12,3.54l33.52,-34.09c-0,-0 -1.57,-1.77 -6.19,1.1c-4.66,2.9 -8.74,6.38 -14.76,12.21c-8.39,8.14 -14.61,15.8 -14.69,17.24Z" style="fill:#ca2c31;fill-rule:nonzero;"/></svg>